<?xml version="1.0" encoding="utf-8"?>
<!-- Generator: Adobe Illustrator 26.0.3, SVG Export Plug-In . SVG Version: 6.00 Build 0)  -->
<svg version="1.0" id="katman_1" xmlns="http://www.w3.org/2000/svg" xmlns:xlink="http://www.w3.org/1999/xlink" x="0px"
    y="0px" width="88px" viewBox="0 0 88.9 58" style="enable-background:new 0 0 88.9 66;" xml:space="preserve">
    <style type="text/css">
        .st0 {
            fill: currentColor;
        }

        .st1 {
            fill-rule: evenodd;
            clip-rule: evenodd;
            fill: currentColor;
        }
    </style>
    <path class="st0" d="M53.8,54.9h3c0,0,1.3,0,1.3-2c0-2-1.3-2-1.3-2h-3C53.8,50.9,53.8,54.9,53.8,54.9z M35,53.6
	c-0.3,0-0.6,0.3-0.6,0.6s0.3,0.6,0.6,0.6l3.5,0v-1.3L35,53.6L35,53.6z M63.6,53.6c-0.3,0-0.6,0.3-0.6,0.6s0.3,0.6,0.6,0.6l3.5,0
	v-1.3L63.6,53.6L63.6,53.6z M62.4,51.9h4.8c0-0.4,0-1.1-1.1-1.1h-4.9v-2h6c1.5,0,2.6,0.6,2.6,2.2l0,6h-7.3l0.1,0c-1,0-1.8-0.8-2-1.9
	C59.8,57,58.3,57,57,57h-5.9v-6.4L42.8,57h-9l0.1,0c-0.8,0-1.5-0.6-1.9-1.4l0,1.4h-2.6v-5.3c0,0,0-0.7-0.8-0.7h-1.9v6h-2.5v-6h-2.7
	v6h-2.6l0-8.2h10.7c1.2,0,2.4,0.7,2.4,2.2v2.3c0.3-0.8,1-1.4,1.9-1.4l-0.1,0h4.8c0-0.4,0-1.1-1.1-1.1h-4.9v-2h6
	c1.5,0,2.6,0.6,2.6,2.2v4.1l8.4-6.3h7.5c1.6,0,3.7,0,3.7,4.1l0,0.1C61.2,52.4,61.8,51.9,62.4,51.9L62.4,51.9
	C62.4,51.9,62.4,51.9,62.4,51.9z M42.1,48.8h6L45.4,51h-3.3L42.1,48.8L42.1,48.8z M50.4,57h-6l2.7-2.2h3.3L50.4,57" />
    <path class="st1" d="M30.6,38.6c-1.2-0.8-1.6-1.7-3.5-2.5c-1.9-2.5-2.6-5.6-2.6-8.6c0-2.2,0.4-4.5,1-6.5l1.9,3.8
	c-0.1,0.9-0.2,1.8-0.2,2.7c0,12.6,8.3,15.1,17.1,15.1c8.8,0,17.1-2.5,17.1-15.1c0-1.2-0.1-2.4-0.3-3.6l1.4-2.8
	c1.9,4.7,1.5,12.7-3,15.6c-0.8,1.1-1.5,2-2.6,2.9c-3.9,3.1-9.5,3.5-14.3,3.3c-4-0.2-8.5-1-11.6-3.8C31,39,30.6,38.6,30.6,38.6z
	 M25.4,15.9l-0.3-0.3c-2.2,2.7-3.7,6.5-3.7,11.7c0,15.8,12.9,18.4,22.8,18.4c9.8,0,22.8-2.6,22.8-18.4c0-5.2-1.4-9-3.7-11.7
	l-0.3,0.3c0,1.4-0.3,2.8-0.5,4.2c1,2.1,1.4,4.6,1.5,7.3c0.1,7.9-3.9,16.1-19.9,16.7c-10.1-0.1-16.4-3.2-19-9.7
	c-1.7-1.1-2.6-3.1-3.3-5c-0.3-4.1,0.3-8.7,2.6-12.2l0.5-0.7c0.2,1.3,0.4,3.1,0.8,3.4c5.1,4.3,14.1,3.7,18.4,12.4
	c4.7-9.6,13-8.4,18.1-12.6l0.5-4.1c-5.9,6.4-14,4.2-18.5,13.9C39.3,20,31.4,22.3,25.4,15.9z M29.4,18.2c3.1-4.7,8.9-5.9,14.9-5.9
	c5.9,0,11.6,1.1,14.7,5.7l3.7-2.8h0l0.2-0.2C58.3,10.1,50.6,9,44.3,9c-6.5,0-14.3,1.1-18.9,6.4l0.1,0.1v0l0.2,0.2c1,1,2.1,2,3.2,2.6
	C29,18.3,29.2,18.3,29.4,18.2L29.4,18.2L29.4,18.2z M62.3,15l-1.7,1c-4.9-4.3-10.2-5.4-16.4-5.3c-6.3,0-11.8,1.1-16.7,5.7l-1.7-1
	c1.8-1.9,3.7-3.1,6.1-4.1C37.1,9.3,44.5,9,50,9.7c4.4,0.6,9,2,12.2,5.2L62.3,15L62.3,15z M44.2,35.2c-2.1-4.5-4.4-6.6-7.9-8l-8.8-3
	l-1.2-3.3c2.2,1.7,5.3,2.8,8.4,4c4.7,1.8,7.2,4.1,9.5,8.7V35.2L44.2,35.2z M44.2,35.2c2.1-4.5,4.4-6.8,7.9-8.3l8.7-3.1l1.2-3.2
	c-2.2,1.7-5.6,2.9-8.6,4.1c-4.7,1.8-6.9,4.3-9.2,8.9V35.2L44.2,35.2z M59.5,21c0.7-0.4,1.4-0.8,2.1-1.2l0.4-0.3l0.3-2.9
	c-2.8,2.6-5.7,3.6-9.2,5.1c-0.5,0.2-1.9,0.8-2.4,1.2c-1.4,1.2-2.2,2.4-2.5,3.7c1.8-1.5,3.8-2.4,5.9-3.3C56,22.4,57.8,21.8,59.5,21
	L59.5,21z M49,23.9c-0.4,0.3-1.6,1.3-1.8,1.6c-0.5,0.9-0.7,1.8-0.7,2.6l1-1l0.2-0.2C47.9,25.9,48.3,24.9,49,23.9L49,23.9z
	 M36.3,22.4c-1.2-0.6-3.1-1.3-4.4-1.8c-2.7-1.2-4.5-2.1-6.6-4.2c0.1,0.5,0.1,1,0.2,1.5c0.1,0.4,0.2,1.5,0.5,1.8
	c0.4,0.4,1.5,1.1,2,1.3c2.1,1.2,4.5,2,6.7,2.9c1.4,0.6,2.9,1.3,4.2,2.1C38.2,24.7,37.3,23.6,36.3,22.4z" />
</svg>