<?xml version="1.0" standalone="no"?>
<!DOCTYPE svg PUBLIC "-//W3C//DTD SVG 20010904//EN" "http://www.w3.org/TR/2001/REC-SVG-20010904/DTD/svg10.dtd">
<svg version="1.0" xmlns="http://www.w3.org/2000/svg" width="70px" viewBox="0 0 1280.000000 640.000000"
    preserveAspectRatio="xMidYMid meet">
    <g transform="translate(0.000000,640.000000) scale(0.100000,-0.100000)" fill="currentColor" stroke="none">
        <path d="M4170 5285 c-361 -27 -795 -87 -1016 -140 -187 -44 -472 -149 -774
-283 -127 -56 -218 -99 -850 -400 l-255 -122 -457 -59 c-510 -66 -493 -61
-540 -148 -72 -131 -118 -483 -118 -895 l0 -117 -36 -27 c-42 -32 -67 -77 -88
-160 -14 -56 -14 -75 9 -294 l24 -235 -30 -44 c-27 -39 -29 -47 -19 -69 31
-69 149 -177 277 -255 l59 -36 409 -56 c226 -31 534 -74 685 -97 151 -22 329
-44 395 -47 l120 -6 26 -75 c73 -211 189 -357 370 -469 233 -143 554 -185 851
-111 190 47 334 126 464 255 75 74 98 106 136 181 25 49 47 97 50 105 4 12 36
13 195 11 l190 -4 24 34 c13 18 28 36 34 40 5 4 143 5 305 3 162 -3 799 -10
1415 -15 616 -6 1563 -15 2105 -21 975 -10 986 -10 1099 10 166 30 159 32 204
-44 90 -155 229 -280 412 -370 511 -253 1136 -98 1355 336 16 30 34 60 42 65
38 30 249 68 654 118 l429 53 210 86 210 85 7 214 c5 147 14 244 28 314 11 56
20 112 20 125 0 47 -34 131 -65 158 -24 21 -39 51 -63 124 -17 52 -49 133 -71
179 -50 106 -168 285 -210 321 -228 192 -1422 431 -2706 542 l-180 16 -175
103 c-470 278 -953 532 -1560 819 -151 71 -302 138 -335 149 -220 69 -535 118
-950 149 -234 17 -2096 21 -2315 4z m1369 -167 c19 -53 172 -951 166 -979 -8
-37 -55 -76 -102 -85 -19 -4 -182 -2 -362 5 -179 6 -533 18 -786 27 -315 11
-464 20 -472 27 -18 17 -119 885 -105 899 21 21 321 69 582 93 223 21 482 32
803 33 l267 2 9 -22z m931 -14 c235 -19 363 -37 520 -75 366 -87 719 -247
1047 -475 121 -85 243 -182 243 -194 0 -6 -24 -10 -54 -10 -112 0 -214 -85
-224 -188 -6 -64 11 -113 54 -159 19 -20 31 -40 26 -45 -5 -5 -224 0 -498 12
-269 11 -604 24 -744 30 -489 19 -495 20 -570 87 -37 33 -55 60 -74 111 -68
180 -316 898 -316 915 0 19 5 20 203 13 111 -4 285 -14 387 -22z m-2665 -114
c6 -10 105 -815 105 -857 l0 -26 -262 7 c-436 12 -589 22 -630 39 -84 35 -168
150 -185 250 -7 45 11 106 47 155 72 100 402 282 670 369 240 78 245 79 255
63z m-3329 -871 c108 -75 155 -142 191 -274 17 -63 27 -326 16 -425 l-8 -75
-220 -7 c-169 -6 -222 -5 -231 5 -9 9 -10 58 -4 198 14 315 44 475 107 569 18
28 54 58 71 60 2 0 37 -23 78 -51z m3334 -369 c26 -26 26 -72 -1 -96 -19 -18
-39 -19 -254 -19 -215 0 -235 1 -254 19 -29 26 -28 80 1 100 19 13 61 16 255
16 220 0 234 -1 253 -20z m2900 -70 c42 -42 14 -103 -53 -115 -18 -4 -124 -5
-235 -3 -191 3 -203 4 -223 25 -26 26 -28 67 -4 93 17 19 32 20 257 20 225 0
239 -1 258 -20z m5612 -347 c101 -97 218 -272 218 -324 l0 -22 -442 6 c-243 4
-446 11 -450 15 -11 11 124 292 153 318 43 39 70 46 223 58 245 21 218 26 298
-51z m-1750 -496 c119 -38 203 -90 295 -182 67 -68 89 -99 127 -176 102 -212
101 -419 -2 -629 -82 -169 -231 -295 -420 -358 -67 -22 -94 -26 -207 -26 -114
0 -140 4 -210 27 -250 83 -432 288 -481 543 -18 95 -18 162 0 256 55 285 261
497 551 564 90 21 251 12 347 -19z m-7487 -72 c39 -8 112 -35 164 -61 169 -83
296 -234 359 -422 33 -98 37 -279 9 -381 -145 -531 -799 -706 -1182 -317 -215
219 -264 525 -129 805 38 78 60 108 132 181 73 73 102 95 182 134 52 26 124
53 160 60 86 19 218 19 305 1z" />
    </g>
</svg>