<?xml version="1.0" standalone="no"?>
<!DOCTYPE svg PUBLIC "-//W3C//DTD SVG 20010904//EN" "http://www.w3.org/TR/2001/REC-SVG-20010904/DTD/svg10.dtd">
<svg version="1.0" xmlns="http://www.w3.org/2000/svg" viewBox="0 0 1280.000000 788.000000"
    preserveAspectRatio="xMidYMid meet">
    <g transform="translate(0.000000,788.000000) scale(0.100000,-0.100000)" fill="currentColor" stroke="none">
        <path d="M4667 7859 c-73 -29 -114 -65 -144 -127 l-28 -57 -5 -445 -5 -445
-855 -5 -856 -5 -49 -25 c-65 -34 -112 -99 -126 -175 -6 -35 -9 -176 -7 -364
3 -291 4 -308 24 -346 28 -51 68 -92 117 -116 43 -22 41 -33 -11 -55 -47 -19
-98 -67 -125 -119 -21 -39 -22 -50 -22 -385 l0 -346 26 -49 c30 -59 94 -111
155 -126 50 -13 56 -26 17 -35 -78 -19 -138 -70 -172 -144 -19 -42 -21 -65
-21 -370 0 -194 4 -340 10 -362 18 -63 69 -120 139 -154 47 -23 59 -33 46 -38
-9 -3 -139 -6 -288 -6 -292 -1 -313 -4 -387 -55 -46 -32 -103 -112 -125 -174
-83 -239 9 -519 193 -587 113 -42 86 -45 -338 -42 l-354 3 -22 39 c-34 61 -93
116 -154 145 l-55 26 -465 3 c-340 2 -481 0 -524 -9 -113 -24 -200 -107 -237
-228 -18 -61 -20 -90 -17 -257 3 -177 5 -193 29 -251 30 -71 59 -109 111 -147
77 -56 79 -56 604 -56 457 0 486 1 536 20 70 26 123 71 160 136 l30 54 871 -2
872 -3 -2 -30 c-15 -210 -14 -361 2 -485 103 -814 687 -1445 1491 -1611 144
-30 449 -37 604 -15 542 79 999 370 1303 831 215 326 329 768 297 1151 -5 65
-10 129 -10 142 l0 22 554 0 c333 0 557 -4 561 -9 3 -5 0 -73 -7 -149 -32
-381 70 -797 277 -1131 283 -456 757 -774 1275 -855 58 -9 137 -21 177 -27
185 -29 567 35 816 135 728 296 1205 1041 1162 1816 -4 74 -8 153 -9 175 l-1
40 250 5 c279 6 283 6 322 77 74 132 43 365 -56 430 -22 15 -29 24 -20 27 8 3
84 7 169 8 188 4 231 19 309 104 54 59 82 121 108 240 15 69 15 79 -2 159 -33
161 -93 252 -197 305 l-61 30 -216 0 c-119 0 -222 4 -230 9 -11 7 -1 16 40 34
63 28 120 88 137 146 8 26 12 147 12 372 0 302 -2 338 -19 374 -26 57 -101
121 -162 136 -27 7 -49 16 -49 20 0 4 20 12 44 18 61 15 125 67 155 126 l26
49 0 346 c0 335 -1 346 -22 385 -25 47 -75 96 -120 119 -18 9 -33 19 -33 21 0
2 25 16 55 30 30 15 68 43 85 63 58 71 61 95 58 464 -3 319 -4 335 -25 373
-25 47 -64 85 -113 111 -33 18 -80 19 -885 24 l-850 5 -5 450 c-5 445 -5 450
-28 497 -30 61 -76 101 -147 127 -53 20 -75 21 -403 21 -325 0 -350 -1 -401
-20 -77 -30 -117 -64 -148 -128 l-28 -57 -5 -445 -5 -445 -1795 0 -1795 0 -5
450 c-5 447 -5 450 -28 498 -29 58 -80 101 -150 127 -49 19 -78 20 -405 19
-326 0 -356 -2 -400 -20z" />
    </g>
</svg>